<svg width="177" height="32" viewBox="0 0 177 32" fill="none" xmlns="http://www.w3.org/2000/svg">
<path d="M55.1991 15.6805C55.1991 11.8797 51.9497 8.68928 48.1094 8.68928C44.2495 8.68928 41 11.8797 41 15.6805C41 19.4814 44.2495 22.6915 48.1094 22.6915C49.7243 22.6915 51.221 22.1203 52.4223 21.1947L53.8796 22.4551L55.1794 20.9387L53.8206 19.7571C54.6871 18.6149 55.1991 17.1969 55.1991 15.6805ZM48.1094 20.4464C45.6083 20.4464 43.5011 18.2801 43.5011 15.6805C43.5011 13.1007 45.6083 10.9344 48.1094 10.9344C50.5908 10.9344 52.6783 13.1007 52.6783 15.6805C52.6783 16.5864 52.4223 17.4333 51.9891 18.1619L50.1772 16.5864L48.8775 18.1028L50.6302 19.6389C49.9015 20.151 49.035 20.4464 48.1094 20.4464Z" fill="#2B3649"/>
<path d="M64.1316 12.2735V18.7133C63.974 19.7965 62.9303 20.6433 61.6699 20.6433C60.4095 20.6433 59.5233 19.6586 59.5233 18.2801V12.2735H57.1994V18.7527C57.1994 21.0569 58.7552 22.6915 60.9806 22.6915C62.3198 22.6915 63.5014 22.0416 64.1316 21.0963V22.4551H66.5342V12.2735H64.1316Z" fill="#2B3649"/>
<path d="M73.4751 12.0372C72.195 12.0372 70.8559 12.3917 69.4182 13.1007L70.2454 14.7746C71.1119 14.3414 72.0375 14.0066 73.0025 14.0066C74.8537 14.0066 75.5036 15.1488 75.5036 16.3304V16.6061C74.578 16.2516 73.5736 16.0547 72.648 16.0547C70.3635 16.0547 68.4926 17.4333 68.4926 19.442C68.4926 21.4114 70.1272 22.6915 72.2935 22.6915C73.4751 22.6915 74.7552 22.1794 75.5036 21.2341V22.4551H77.8471V16.3304C77.8471 13.7505 76.1732 12.0372 73.4751 12.0372ZM72.8252 20.9387C71.683 20.9387 70.8362 20.3282 70.8362 19.3632C70.8362 18.3982 71.8012 17.7287 73.0025 17.7287C73.9084 17.7287 74.7552 17.8665 75.5036 18.1225V19.2648C75.2279 20.3479 73.9872 20.9387 72.8252 20.9387Z" fill="#2B3649"/>
<path d="M80.3108 22.4551H82.7135V8.68928H80.3108V22.4551Z" fill="#2B3649"/>
<path d="M86.452 10.7374C87.2004 10.7374 87.8109 10.0875 87.8109 9.35886C87.8109 8.6302 87.2004 8 86.452 8C85.684 8 85.0735 8.6302 85.0735 9.35886C85.0735 10.0875 85.684 10.7374 86.452 10.7374ZM85.231 22.4551H87.6336V12.2735H85.231V22.4551Z" fill="#2B3649"/>
<path d="M95.2322 20.2691C95.0155 20.4858 94.6414 20.6433 94.2278 20.6433C93.6567 20.6433 93.2234 20.151 93.2234 19.4617V14.2626H95.5276V12.2735H93.2234V9.47702H90.8799V12.2735H89.4028V14.2626H90.8799V19.7571C90.8799 21.4705 92.0615 22.6915 93.7551 22.6915C94.5232 22.6915 95.3503 22.3764 95.9214 21.884L95.2322 20.2691Z" fill="#2B3649"/>
<path d="M99.7163 26C101.252 25.9803 102.434 25.0941 103.202 23.1641L107.515 12.2735H105.034L102.237 19.8753L99.2634 12.2735H96.7229L101.036 22.5339L100.603 23.4398C100.307 23.9322 99.8739 24.1094 99.3027 24.1094C98.9286 24.1094 98.4362 23.9716 98.003 23.7352L97.4909 25.4683C98.1014 25.8031 98.9483 26 99.7163 26Z" fill="#2B3649"/>
<path d="M118.595 8.9256V14.4398H111.84V8.9256H109.379V22.4551H111.84V16.6849H118.595V22.4551H121.057V8.9256H118.595Z" fill="#2B3649"/>
<path d="M128.39 20.5646C126.933 20.5646 125.869 19.5799 125.574 18.1816H133.254C133.254 14.4201 131.423 12.0372 128.272 12.0372C125.377 12.0372 123.092 14.2823 123.092 17.3348C123.092 20.4661 125.495 22.6915 128.41 22.6915C129.887 22.6915 131.659 22.0613 132.545 21.116L131.029 19.5405C130.458 20.1313 129.335 20.5646 128.39 20.5646ZM128.37 14.1641C129.808 14.1641 130.674 15.07 130.95 16.3501H125.593C125.948 15.0109 127.031 14.1641 128.37 14.1641Z" fill="#2B3649"/>
<path d="M139.63 12.0372C138.35 12.0372 137.011 12.3917 135.573 13.1007L136.4 14.7746C137.267 14.3414 138.192 14.0066 139.157 14.0066C141.009 14.0066 141.659 15.1488 141.659 16.3304V16.6061C140.733 16.2516 139.729 16.0547 138.803 16.0547C136.519 16.0547 134.648 17.4333 134.648 19.442C134.648 21.4114 136.282 22.6915 138.448 22.6915C139.63 22.6915 140.91 22.1794 141.659 21.2341V22.4551H144.002V16.3304C144.002 13.7505 142.328 12.0372 139.63 12.0372ZM138.98 20.9387C137.838 20.9387 136.991 20.3282 136.991 19.3632C136.991 18.3982 137.956 17.7287 139.157 17.7287C140.063 17.7287 140.91 17.8665 141.659 18.1225V19.2648C141.383 20.3479 140.142 20.9387 138.98 20.9387Z" fill="#2B3649"/>
<path d="M146.466 22.4551H148.868V8.68928H146.466V22.4551Z" fill="#2B3649"/>
<path d="M156.467 20.2691C156.25 20.4858 155.876 20.6433 155.463 20.6433C154.891 20.6433 154.458 20.151 154.458 19.4617V14.2626H156.762V12.2735H154.458V9.47702H152.115V12.2735H150.638V14.2626H152.115V19.7571C152.115 21.4705 153.296 22.6915 154.99 22.6915C155.758 22.6915 156.585 22.3764 157.156 21.884L156.467 20.2691Z" fill="#2B3649"/>
<path d="M164.437 12.0372C163.078 12.0372 161.877 12.6871 161.266 13.6718V8.68928H158.864V22.4551H161.266V16.291C161.266 15.07 162.389 14.0853 163.748 14.0853C165.008 14.0853 165.894 15.07 165.894 16.4486V22.4551H168.218V15.9759C168.218 13.6718 166.662 12.0372 164.437 12.0372Z" fill="#2B3649"/>
<path d="M174.184 10.4701C174.184 9.14223 173.126 8.0844 171.798 8.0844C170.481 8.0844 169.412 9.14223 169.412 10.4701C169.412 11.7868 170.481 12.8559 171.798 12.8559C173.126 12.8559 174.184 11.7868 174.184 10.4701ZM173.88 10.4701C173.88 11.6068 172.946 12.552 171.798 12.552C170.65 12.552 169.716 11.6068 169.716 10.4701C169.716 9.31103 170.65 8.38825 171.798 8.38825C172.946 8.38825 173.88 9.31103 173.88 10.4701ZM172.889 11.8431L172.158 10.7515C172.315 10.7515 172.856 10.5489 172.856 9.94123C172.856 9.43482 172.473 9.10847 172.012 9.10847H170.898V11.8431H171.235V10.7627H171.753L172.462 11.8431H172.889ZM172.507 9.94123C172.507 10.2226 172.248 10.4364 172.012 10.4364H171.235V9.42357H172.012C172.248 9.42357 172.507 9.63739 172.507 9.94123Z" fill="#2B3649"/>
<path d="M13.3615 3.34077C14.1577 2.2033 15.8423 2.2033 16.6385 3.34077L18.1725 5.53224C18.6183 6.16919 19.3929 6.49003 20.1586 6.35491L22.7929 5.88999C24.1602 5.64868 25.3513 6.83984 25.11 8.20715L24.6451 10.8415C24.51 11.6071 24.8308 12.3817 25.4678 12.8275L27.6592 14.3615C28.7967 15.1577 28.7967 16.8423 27.6592 17.6385L25.4678 19.1725C24.8308 19.6183 24.51 20.3929 24.6451 21.1585L25.11 23.7929C25.3513 25.1602 24.1602 26.3513 22.7929 26.11L20.1586 25.6451C19.3929 25.51 18.6183 25.8308 18.1725 26.4678L16.6385 28.6592C15.8423 29.7967 14.1577 29.7967 13.3615 28.6592L11.8275 26.4678C11.3817 25.8308 10.6071 25.51 9.84145 25.6451L7.20715 26.11C5.83984 26.3513 4.64868 25.1602 4.88999 23.7929L5.35491 21.1586C5.49003 20.3929 5.16919 19.6183 4.53224 19.1725L2.34077 17.6385C1.2033 16.8423 1.2033 15.1577 2.34077 14.3615L4.53224 12.8275C5.16919 12.3817 5.49003 11.6071 5.35491 10.8415L4.88999 8.20715C4.64868 6.83984 5.83984 5.64868 7.20715 5.88999L9.84145 6.35491C10.6071 6.49003 11.3817 6.16919 11.8275 5.53224L13.3615 3.34077Z" fill="#2B3649"/>
<path d="M14.2 2.06667C14.6 1.53333 15.4 1.53333 15.8 2.06667L19.05 6.4C19.3167 6.75556 19.3167 7.24444 19.05 7.6L15.8 11.9333C15.4 12.4667 14.6 12.4667 14.2 11.9333L10.95 7.6C10.6833 7.24444 10.6833 6.75556 10.95 6.4L14.2 2.06667Z" fill="#00BFA5"/>
<path d="M14.2 20.0667C14.6 19.5333 15.4 19.5333 15.8 20.0667L19.05 24.4C19.3167 24.7556 19.3167 25.2444 19.05 25.6L15.8 29.9333C15.4 30.4667 14.6 30.4667 14.2 29.9333L10.95 25.6C10.6833 25.2444 10.6833 24.7556 10.95 24.4L14.2 20.0667Z" fill="#00BFA5"/>
<path d="M4.58197 6.71354C4.48769 6.05358 5.05337 5.48789 5.71334 5.58217L11.0756 6.3482C11.5155 6.41106 11.8612 6.75676 11.9241 7.19673L12.6901 12.559C12.7844 13.2189 12.2187 13.7846 11.5588 13.6903L6.19653 12.9243C5.75655 12.8614 5.41085 12.5157 5.348 12.0758L4.58197 6.71354Z" fill="#00BFA5"/>
<path d="M17.3099 19.4415C17.2156 18.7815 17.7813 18.2158 18.4412 18.3101L23.8035 19.0761C24.2434 19.139 24.5891 19.4847 24.652 19.9246L25.418 25.2869C25.5123 25.9468 24.9466 26.5125 24.2867 26.4182L18.9244 25.6522C18.4845 25.5893 18.1388 25.2437 18.0759 24.8037L17.3099 19.4415Z" fill="#00BFA5"/>
<path d="M1.06667 16.8C0.533334 16.4 0.533333 15.6 1.06667 15.2L5.4 11.95C5.75556 11.6833 6.24444 11.6833 6.6 11.95L10.9333 15.2C11.4667 15.6 11.4667 16.4 10.9333 16.8L6.6 20.05C6.24444 20.3167 5.75556 20.3167 5.4 20.05L1.06667 16.8Z" fill="#00BFA5"/>
<path d="M19.0667 16.8C18.5333 16.4 18.5333 15.6 19.0667 15.2L23.4 11.95C23.7556 11.6833 24.2444 11.6833 24.6 11.95L28.9333 15.2C29.4667 15.6 29.4667 16.4 28.9333 16.8L24.6 20.05C24.2444 20.3167 23.7556 20.3167 23.4 20.05L19.0667 16.8Z" fill="#00BFA5"/>
<path d="M5.71333 26.418C5.05336 26.5123 4.48768 25.9466 4.58196 25.2867L5.34799 19.9244C5.41085 19.4845 5.75654 19.1388 6.19652 19.0759L11.5587 18.3099C12.2187 18.2156 12.7844 18.7813 12.6901 19.4412L11.9241 24.8035C11.8612 25.2434 11.5155 25.5891 11.0756 25.652L5.71333 26.418Z" fill="#00BFA5"/>
<path d="M18.4412 13.6901C17.7813 13.7844 17.2156 13.2187 17.3099 12.5588L18.0759 7.19653C18.1388 6.75655 18.4844 6.41086 18.9244 6.348L24.2867 5.58197C24.9466 5.48769 25.5123 6.05337 25.418 6.71334L24.652 12.0756C24.5891 12.5155 24.2434 12.8612 23.8035 12.9241L18.4412 13.6901Z" fill="#00BFA5"/>
</svg>
